solid OpenSCAD_Model
  facet normal 0 0 -1
    outer loop
      vertex -9.50001 -103.634 0
      vertex 94.5 43.5899 0
      vertex 94.5 -43.5899 0
    endloop
  endfacet
  facet normal 0 0 -1
    outer loop
      vertex -9.50001 -103.634 0
      vertex -9.50001 103.634 0
      vertex 94.5 43.5899 0
    endloop
  endfacet
  facet normal 0 0 -1
    outer loop
      vertex -85 -60.0444 0
      vertex -9.50001 103.634 0
      vertex -9.50001 -103.634 0
    endloop
  endfacet
  facet normal 0 0 -1
    outer loop
      vertex -9.50001 103.634 0
      vertex -85 -60.0444 0
      vertex -85 60.0444 0
    endloop
  endfacet
  facet normal -1 0 0
    outer loop
      vertex -85 -60.0444 0
      vertex -85 60.0444 2
      vertex -85 60.0444 0
    endloop
  endfacet
  facet normal -1 -0 0
    outer loop
      vertex -85 60.0444 2
      vertex -85 -60.0444 0
      vertex -85 -60.0444 2
    endloop
  endfacet
  facet normal 0.499998 -0.866027 0
    outer loop
      vertex -9.50001 -103.634 0
      vertex 94.5 -43.5899 2
      vertex -9.50001 -103.634 2
    endloop
  endfacet
  facet normal 0.499998 -0.866027 0
    outer loop
      vertex 94.5 -43.5899 2
      vertex -9.50001 -103.634 0
      vertex 94.5 -43.5899 0
    endloop
  endfacet
  facet normal 0 0 1
    outer loop
      vertex -9.50001 103.634 2
      vertex 94.5 -43.5899 2
      vertex 94.5 43.5899 2
    endloop
  endfacet
  facet normal 0 0 1
    outer loop
      vertex -9.50001 103.634 2
      vertex -9.50001 -103.634 2
      vertex 94.5 -43.5899 2
    endloop
  endfacet
  facet normal -0 0 1
    outer loop
      vertex -85 60.0444 2
      vertex -9.50001 -103.634 2
      vertex -9.50001 103.634 2
    endloop
  endfacet
  facet normal 0 0 1
    outer loop
      vertex -9.50001 -103.634 2
      vertex -85 60.0444 2
      vertex -85 -60.0444 2
    endloop
  endfacet
  facet normal 0.499998 0.866027 -0
    outer loop
      vertex 94.5 43.5899 0
      vertex -9.50001 103.634 2
      vertex 94.5 43.5899 2
    endloop
  endfacet
  facet normal 0.499998 0.866027 0
    outer loop
      vertex -9.50001 103.634 2
      vertex 94.5 43.5899 0
      vertex -9.50001 103.634 0
    endloop
  endfacet
  facet normal 1 -0 0
    outer loop
      vertex 94.5 -43.5899 2
      vertex 94.5 43.5899 0
      vertex 94.5 43.5899 2
    endloop
  endfacet
  facet normal 1 0 0
    outer loop
      vertex 94.5 43.5899 0
      vertex 94.5 -43.5899 2
      vertex 94.5 -43.5899 0
    endloop
  endfacet
  facet normal -0.499997 0.866027 0
    outer loop
      vertex -9.50001 103.634 0
      vertex -85 60.0444 2
      vertex -9.50001 103.634 2
    endloop
  endfacet
  facet normal -0.499997 0.866027 0
    outer loop
      vertex -85 60.0444 2
      vertex -9.50001 103.634 0
      vertex -85 60.0444 0
    endloop
  endfacet
  facet normal -0.499997 -0.866027 0
    outer loop
      vertex -85 -60.0444 0
      vertex -9.50001 -103.634 2
      vertex -85 -60.0444 2
    endloop
  endfacet
  facet normal -0.499997 -0.866027 -0
    outer loop
      vertex -9.50001 -103.634 2
      vertex -85 -60.0444 0
      vertex -9.50001 -103.634 0
    endloop
  endfacet
endsolid OpenSCAD_Model
